<svg width="37" height="253" viewBox="0 0 37 253" fill="none" xmlns="http://www.w3.org/2000/svg">
<g clip-path="url(#clip0_24_11493)">
<path d="M13.8747 246.75C6.16634 248.625 6.16634 243.625 3.08301 243M24.6663 250.5V245.663C24.7242 245.066 24.6249 244.467 24.375 243.905C24.1251 243.342 23.7304 242.829 23.2172 242.4C28.058 241.963 33.1455 240.475 33.1455 233.65C33.1451 231.905 32.3172 230.227 30.833 228.963C31.5358 227.436 31.4861 225.748 30.6943 224.25C30.6943 224.25 28.8751 223.813 24.6663 226.1C21.1329 225.324 17.4082 225.324 13.8747 226.1C9.66592 223.813 7.84676 224.25 7.84676 224.25C7.05492 225.748 7.00523 227.436 7.70801 228.963C6.21279 230.236 5.38398 231.929 5.39551 233.688C5.39551 240.463 10.483 241.95 15.3238 242.438C14.8166 242.863 14.4255 243.369 14.1758 243.925C13.9261 244.481 13.8235 245.073 13.8747 245.663V250.5" stroke="#B3B3B3" stroke-width="4" stroke-linecap="round" stroke-linejoin="round"/>
</g>
<defs>
<clipPath id="clip0_24_11493">
<rect width="37" height="30" fill="white" transform="translate(0 223)"/>
</clipPath>
</defs>
</svg>
