<svg width="36" height="256" viewBox="0 0 36 256" fill="none" xmlns="http://www.w3.org/2000/svg">
<path d="M26.25 231.938H26.265M10.5 225.75H25.5C29.6421 225.75 33 228.828 33 232.625V246.375C33 250.172 29.6421 253.25 25.5 253.25H10.5C6.35786 253.25 3 250.172 3 246.375V232.625C3 228.828 6.35786 225.75 10.5 225.75ZM24 238.634C24.1851 239.778 23.9719 240.947 23.3906 241.974C22.8094 243 21.8897 243.833 20.7624 244.353C19.6352 244.873 18.3577 245.054 17.1117 244.871C15.8657 244.687 14.7146 244.148 13.8223 243.33C12.9299 242.512 12.3416 241.456 12.1411 240.314C11.9406 239.172 12.1381 238.001 12.7055 236.968C13.2729 235.934 14.1813 235.091 15.3015 234.559C16.4217 234.026 17.6966 233.83 18.945 234C20.2184 234.173 21.3973 234.717 22.3075 235.551C23.2178 236.386 23.8112 237.466 24 238.634Z" stroke="#B3B3B3" stroke-width="4" stroke-linecap="round" stroke-linejoin="round"/>
</svg>
