<svg width="37" height="30" viewBox="0 0 37 30" fill="none" xmlns="http://www.w3.org/2000/svg">
<g clip-path="url(#clip0_1_1191)">
<path d="M13.875 23.7498C6.16671 25.6248 6.16671 20.6248 3.08337 19.9998M24.6667 27.4998V22.6623C24.7245 22.0663 24.6252 21.4671 24.3754 20.9045C24.1255 20.342 23.7308 19.8291 23.2175 19.3998C28.0584 18.9623 33.1459 17.4748 33.1459 10.6498C33.1455 8.90458 32.3175 7.2263 30.8334 5.9623C31.5362 4.43543 31.4865 2.74774 30.6946 1.2498C30.6946 1.2498 28.8755 0.8123 24.6667 3.0998C21.1332 2.32333 17.4085 2.32333 13.875 3.0998C9.66629 0.8123 7.84712 1.2498 7.84712 1.2498C7.05529 2.74774 7.0056 4.43543 7.70837 5.9623C6.21315 7.23567 5.38435 8.92913 5.39587 10.6873C5.39587 17.4623 10.4834 18.9498 15.3242 19.4373C14.817 19.8623 14.4258 20.3691 14.1761 20.9247C13.9265 21.4803 13.8239 22.0724 13.875 22.6623V27.4998" stroke="#B3B3B3" stroke-width="4" stroke-linecap="round" stroke-linejoin="round"/>
</g>
<defs>
<clipPath id="clip0_1_1191">
<rect width="37" height="30" fill="white"/>
</clipPath>
</defs>
</svg>
