<svg width="36" height="33" viewBox="0 0 36 33" fill="none" xmlns="http://www.w3.org/2000/svg">
<path d="M26.25 8.9375H26.265M10.5 2.75H25.5C29.6421 2.75 33 5.82804 33 9.625V23.375C33 27.172 29.6421 30.25 25.5 30.25H10.5C6.35786 30.25 3 27.172 3 23.375V9.625C3 5.82804 6.35786 2.75 10.5 2.75ZM24 15.6337C24.1851 16.7781 23.9719 17.9468 23.3906 18.9736C22.8094 20.0005 21.8897 20.8332 20.7624 21.3533C19.6352 21.8734 18.3577 22.0544 17.1117 21.8707C15.8657 21.6869 14.7146 21.1476 13.8223 20.3296C12.9299 19.5116 12.3416 18.4565 12.1411 17.3143C11.9406 16.1721 12.1381 15.0011 12.7055 13.9678C13.2729 12.9344 14.1813 12.0914 15.3015 11.5586C16.4217 11.0258 17.6966 10.8303 18.945 11C20.2184 11.1731 21.3973 11.717 22.3075 12.5514C23.2178 13.3858 23.8112 14.4665 24 15.6337Z" stroke="#B3B3B3" stroke-width="4" stroke-linecap="round" stroke-linejoin="round"/>
</svg>
