<svg width="10" height="10" viewBox="0 0 10 10" fill="none" xmlns="http://www.w3.org/2000/svg">
<path d="M5.00004 9.16683C4.90282 9.16683 4.81949 9.13905 4.75004 9.0835C4.6806 9.02794 4.62851 8.95502 4.59379 8.86475C4.46185 8.47586 4.29518 8.11127 4.09379 7.771C3.89935 7.43072 3.62504 7.03141 3.27087 6.57308C2.91671 6.11475 2.62851 5.67725 2.40629 5.26058C2.19101 4.84391 2.08337 4.34044 2.08337 3.75016C2.08337 2.93766 2.36462 2.25016 2.92712 1.68766C3.49657 1.11822 4.18754 0.833496 5.00004 0.833496C5.81254 0.833496 6.50004 1.11822 7.06254 1.68766C7.63199 2.25016 7.91671 2.93766 7.91671 3.75016C7.91671 4.38211 7.79518 4.90988 7.55212 5.3335C7.31601 5.75016 7.04171 6.16336 6.72921 6.57308C6.35421 7.07308 6.06948 7.48975 5.87504 7.82308C5.68754 8.14947 5.53129 8.49669 5.40629 8.86475C5.37157 8.96197 5.31601 9.03836 5.23962 9.09391C5.17018 9.14252 5.09032 9.16683 5.00004 9.16683ZM5.00004 4.79183C5.29171 4.79183 5.53824 4.69113 5.73962 4.48975C5.94101 4.28836 6.04171 4.04183 6.04171 3.75016C6.04171 3.4585 5.94101 3.21197 5.73962 3.01058C5.53824 2.80919 5.29171 2.7085 5.00004 2.7085C4.70837 2.7085 4.46185 2.80919 4.26046 3.01058C4.05907 3.21197 3.95837 3.4585 3.95837 3.75016C3.95837 4.04183 4.05907 4.28836 4.26046 4.48975C4.46185 4.69113 4.70837 4.79183 5.00004 4.79183Z" fill="#1D1B20"/>
</svg>
