<svg width="27" height="24" viewBox="0 0 27 24" fill="none" xmlns="http://www.w3.org/2000/svg">
<g clip-path="url(#clip0_22_13227)">
<path d="M1.125 1.00009L25.875 23.0001M10.125 9.00009V12.0001C10.1256 12.5931 10.3238 13.1726 10.6947 13.6654C11.0656 14.1583 11.5925 14.5424 12.2088 14.7692C12.8252 14.9961 13.5033 15.0555 14.1576 14.94C14.8119 14.8244 15.413 14.5391 15.885 14.1201M16.875 9.34009V4.00009C16.8758 3.25612 16.5657 2.53841 16.0047 1.98629C15.4437 1.43417 14.6719 1.08703 13.8392 1.01227C13.0065 0.937497 12.1722 1.14043 11.4983 1.58168C10.8244 2.02293 10.3591 2.671 10.1925 3.40009M19.125 16.9501C18.0268 17.9465 16.6186 18.6285 15.0813 18.9087C13.544 19.1888 11.9475 19.0543 10.4968 18.5224C9.04608 17.9904 7.80723 17.0854 6.93919 15.9232C6.07115 14.7611 5.61352 13.395 5.625 12.0001V10.0001M21.375 10.0001V12.0001C21.3746 12.4125 21.3332 12.8241 21.2512 13.2301M13.5 19.0001V23.0001M9 23.0001H18" stroke="white" stroke-width="4" stroke-linecap="round" stroke-linejoin="round"/>
</g>
<defs>
<clipPath id="clip0_22_13227">
<rect width="27" height="24" fill="white"/>
</clipPath>
</defs>
</svg>
