<svg width="21" height="21" viewBox="0 0 21 21" fill="none" xmlns="http://www.w3.org/2000/svg">
<path d="M10.5 10.5C9.5375 10.5 8.71354 10.1573 8.02813 9.47188C7.34271 8.78646 7 7.9625 7 7C7 6.0375 7.34271 5.21354 8.02813 4.52813C8.71354 3.84271 9.5375 3.5 10.5 3.5C11.4625 3.5 12.2865 3.84271 12.9719 4.52813C13.6573 5.21354 14 6.0375 14 7C14 7.9625 13.6573 8.78646 12.9719 9.47188C12.2865 10.1573 11.4625 10.5 10.5 10.5ZM3.5 17.5V15.05C3.5 14.5542 3.6276 14.0984 3.88281 13.6828C4.13802 13.2672 4.47708 12.95 4.9 12.7312C5.80417 12.2792 6.72292 11.9401 7.65625 11.7141C8.58958 11.488 9.5375 11.375 10.5 11.375C11.4625 11.375 12.4104 11.488 13.3438 11.7141C14.2771 11.9401 15.1958 12.2792 16.1 12.7312C16.5229 12.95 16.862 13.2672 17.1172 13.6828C17.3724 14.0984 17.5 14.5542 17.5 15.05V17.5H3.5ZM5.25 15.75H15.75V15.05C15.75 14.8896 15.7099 14.7437 15.6297 14.6125C15.5495 14.4812 15.4438 14.3792 15.3125 14.3063C14.525 13.9125 13.7302 13.6172 12.9281 13.4203C12.126 13.2234 11.3167 13.125 10.5 13.125C9.68333 13.125 8.87396 13.2234 8.07188 13.4203C7.26979 13.6172 6.475 13.9125 5.6875 14.3063C5.55625 14.3792 5.45052 14.4812 5.37031 14.6125C5.2901 14.7437 5.25 14.8896 5.25 15.05V15.75ZM10.5 8.75C10.9812 8.75 11.3932 8.57865 11.7359 8.23594C12.0786 7.89323 12.25 7.48125 12.25 7C12.25 6.51875 12.0786 6.10677 11.7359 5.76406C11.3932 5.42135 10.9812 5.25 10.5 5.25C10.0188 5.25 9.60677 5.42135 9.26406 5.76406C8.92135 6.10677 8.75 6.51875 8.75 7C8.75 7.48125 8.92135 7.89323 9.26406 8.23594C9.60677 8.57865 10.0188 8.75 10.5 8.75Z" fill="white"/>
</svg>
