<svg width="33" height="37" viewBox="0 0 33 37" fill="none" xmlns="http://www.w3.org/2000/svg">
<rect width="33" height="37" rx="16.5" fill="#778DA9"/>
<path d="M27.5 32.375V29.2917C27.5 27.6562 26.9205 26.0876 25.8891 24.9312C24.8576 23.7747 23.4587 23.125 22 23.125H11C9.54131 23.125 8.14236 23.7747 7.11091 24.9312C6.07946 26.0876 5.5 27.6562 5.5 29.2917V32.375M22 10.7917C22 14.1974 19.5376 16.9583 16.5 16.9583C13.4624 16.9583 11 14.1974 11 10.7917C11 7.38591 13.4624 4.625 16.5 4.625C19.5376 4.625 22 7.38591 22 10.7917Z" stroke="#1E1E1E" stroke-width="4" stroke-linecap="round" stroke-linejoin="round"/>
</svg>
