<svg width="8" height="7" viewBox="0 0 8 7" fill="none" xmlns="http://www.w3.org/2000/svg">
<g clip-path="url(#clip0_20_9841)">
<path d="M5.33335 6.125V1.45833C5.33335 1.30362 5.26312 1.15525 5.13809 1.04585C5.01307 0.936458 4.8435 0.875 4.66669 0.875H3.33335C3.15654 0.875 2.98697 0.936458 2.86195 1.04585C2.73693 1.15525 2.66669 1.30362 2.66669 1.45833V6.125M1.33335 2.04167H6.66669C7.03488 2.04167 7.33335 2.30283 7.33335 2.625V5.54167C7.33335 5.86383 7.03488 6.125 6.66669 6.125H1.33335C0.965164 6.125 0.666687 5.86383 0.666687 5.54167V2.625C0.666687 2.30283 0.965164 2.04167 1.33335 2.04167Z" stroke="#1E1E1E" stroke-linecap="round" stroke-linejoin="round"/>
</g>
<defs>
<clipPath id="clip0_20_9841">
<rect width="8" height="7" rx="3.5" fill="white"/>
</clipPath>
</defs>
</svg>
