<svg width="10" height="10" viewBox="0 0 10 10" fill="none" xmlns="http://www.w3.org/2000/svg">
<g clip-path="url(#clip0_1_796)">
<path d="M6.66671 8.75V2.08333C6.66671 1.86232 6.57891 1.65036 6.42263 1.49408C6.26635 1.3378 6.05439 1.25 5.83337 1.25H4.16671C3.94569 1.25 3.73373 1.3378 3.57745 1.49408C3.42117 1.65036 3.33337 1.86232 3.33337 2.08333V8.75M1.66671 2.91667H8.33337C8.79361 2.91667 9.16671 3.28976 9.16671 3.75V7.91667C9.16671 8.3769 8.79361 8.75 8.33337 8.75H1.66671C1.20647 8.75 0.833374 8.3769 0.833374 7.91667V3.75C0.833374 3.28976 1.20647 2.91667 1.66671 2.91667Z" stroke="#1E1E1E" stroke-linecap="round" stroke-linejoin="round"/>
</g>
<defs>
<clipPath id="clip0_1_796">
<rect width="10" height="10" fill="white"/>
</clipPath>
</defs>
</svg>
