<svg width="24" height="313" viewBox="0 0 24 313" fill="none" xmlns="http://www.w3.org/2000/svg">
<path d="M12 290.5C6.20156 290.5 1.5 295.202 1.5 301C1.5 306.798 6.20156 311.5 12 311.5C17.7984 311.5 22.5 306.798 22.5 301C22.5 295.202 17.7984 290.5 12 290.5ZM12 309.719C7.18594 309.719 3.28125 305.814 3.28125 301C3.28125 296.186 7.18594 292.281 12 292.281C16.8141 292.281 20.7188 296.186 20.7188 301C20.7188 305.814 16.8141 309.719 12 309.719ZM12.1312 297.234C13.3734 297.234 14.2172 298.026 14.3109 299.188C14.318 299.287 14.4 299.362 14.4984 299.362H15.8273C15.8883 299.362 15.9375 299.312 15.9375 299.252C15.9375 297.22 14.3344 295.797 12.1242 295.797C9.54844 295.797 8.0625 297.536 8.0625 300.409V301.635C8.0625 304.487 9.54844 306.203 12.1242 306.203C14.3273 306.203 15.9375 304.825 15.9375 302.889C15.9375 302.828 15.8883 302.779 15.8273 302.779H14.4961C14.3977 302.779 14.318 302.854 14.3086 302.95C14.2102 304.03 13.3687 304.773 12.1289 304.773C10.5984 304.773 9.73594 303.651 9.73594 301.642V300.409C9.73828 298.37 10.6031 297.234 12.1312 297.234Z" fill="white"/>
</svg>
