<svg width="32" height="253" viewBox="0 0 32 253" fill="none" xmlns="http://www.w3.org/2000/svg">
<g clip-path="url(#clip0_24_11491)">
<path d="M30.6663 226.75C29.3895 227.594 27.9758 228.24 26.4797 228.663C25.6767 227.797 24.6095 227.183 23.4224 226.905C22.2353 226.627 20.9857 226.697 19.8424 227.106C18.6992 227.515 17.7176 228.243 17.0303 229.192C16.343 230.141 15.9833 231.266 15.9997 232.413V233.663C13.6565 233.72 11.3347 233.232 9.24102 232.244C7.14733 231.256 5.34676 229.798 3.99967 228C3.99967 228 -1.33366 239.25 10.6663 244.25C7.92038 245.998 4.64922 246.874 1.33301 246.75C13.333 253 27.9997 246.75 27.9997 232.375C27.9984 232.027 27.9627 231.68 27.893 231.338C29.2538 230.079 30.2141 228.491 30.6663 226.75Z" stroke="#B3B3B3" stroke-width="4" stroke-linecap="round" stroke-linejoin="round"/>
</g>
<defs>
<clipPath id="clip0_24_11491">
<rect width="32" height="30" fill="white" transform="translate(0 223)"/>
</clipPath>
</defs>
</svg>
