<svg width="8" height="9" viewBox="0 0 8 9" fill="none" xmlns="http://www.w3.org/2000/svg">
<path d="M3.99996 8.25C3.92218 8.25 3.85552 8.225 3.79996 8.175C3.7444 8.125 3.70274 8.05937 3.67496 7.97812C3.5694 7.62812 3.43607 7.3 3.27496 6.99375C3.1194 6.6875 2.89996 6.32812 2.61663 5.91562C2.33329 5.50312 2.10274 5.10938 1.92496 4.73438C1.75274 4.35937 1.66663 3.90625 1.66663 3.375C1.66663 2.64375 1.89163 2.025 2.34163 1.51875C2.79718 1.00625 3.34996 0.75 3.99996 0.75C4.64996 0.75 5.19996 1.00625 5.64996 1.51875C6.10551 2.025 6.33329 2.64375 6.33329 3.375C6.33329 3.94375 6.23607 4.41875 6.04163 4.8C5.85274 5.175 5.63329 5.54687 5.38329 5.91562C5.08329 6.36562 4.85551 6.74062 4.69996 7.04062C4.54996 7.33437 4.42496 7.64687 4.32496 7.97812C4.29718 8.06562 4.25274 8.13438 4.19163 8.18438C4.13607 8.22813 4.07218 8.25 3.99996 8.25ZM3.99996 4.3125C4.23329 4.3125 4.43052 4.22187 4.59163 4.04062C4.75274 3.85938 4.83329 3.6375 4.83329 3.375C4.83329 3.1125 4.75274 2.89062 4.59163 2.70937C4.43052 2.52812 4.23329 2.4375 3.99996 2.4375C3.76663 2.4375 3.5694 2.52812 3.40829 2.70937C3.24718 2.89062 3.16663 3.1125 3.16663 3.375C3.16663 3.6375 3.24718 3.85938 3.40829 4.04062C3.5694 4.22187 3.76663 4.3125 3.99996 4.3125Z" fill="#1D1B20"/>
</svg>
