<svg width="19" height="21" viewBox="0 0 19 21" fill="none" xmlns="http://www.w3.org/2000/svg">
<path d="M9.50033 10.5C8.62949 10.5 7.88401 10.1573 7.26387 9.47188C6.64373 8.78646 6.33366 7.9625 6.33366 7C6.33366 6.0375 6.64373 5.21354 7.26387 4.52813C7.88401 3.84271 8.62949 3.5 9.50033 3.5C10.3712 3.5 11.1166 3.84271 11.7368 4.52813C12.3569 5.21354 12.667 6.0375 12.667 7C12.667 7.9625 12.3569 8.78646 11.7368 9.47188C11.1166 10.1573 10.3712 10.5 9.50033 10.5ZM3.16699 17.5V15.05C3.16699 14.5542 3.28244 14.0984 3.51335 13.6828C3.74425 13.2672 4.05102 12.95 4.43366 12.7312C5.25171 12.2792 6.08296 11.9401 6.92741 11.7141C7.77185 11.488 8.62949 11.375 9.50033 11.375C10.3712 11.375 11.2288 11.488 12.0732 11.7141C12.9177 11.9401 13.7489 12.2792 14.567 12.7312C14.9496 12.95 15.2564 13.2672 15.4873 13.6828C15.7182 14.0984 15.8337 14.5542 15.8337 15.05V17.5H3.16699ZM4.75033 15.75H14.2503V15.05C14.2503 14.8896 14.214 14.7437 14.1415 14.6125C14.0689 14.4812 13.9732 14.3792 13.8545 14.3063C13.142 13.9125 12.4229 13.6172 11.6972 13.4203C10.9715 13.2234 10.2392 13.125 9.50033 13.125C8.76144 13.125 8.02914 13.2234 7.30345 13.4203C6.57776 13.6172 5.85866 13.9125 5.14616 14.3063C5.02741 14.3792 4.93175 14.4812 4.85918 14.6125C4.78661 14.7437 4.75033 14.8896 4.75033 15.05V15.75ZM9.50033 8.75C9.93574 8.75 10.3085 8.57865 10.6186 8.23594C10.9286 7.89323 11.0837 7.48125 11.0837 7C11.0837 6.51875 10.9286 6.10677 10.6186 5.76406C10.3085 5.42135 9.93574 5.25 9.50033 5.25C9.06491 5.25 8.69217 5.42135 8.3821 5.76406C8.07203 6.10677 7.91699 6.51875 7.91699 7C7.91699 7.48125 8.07203 7.89323 8.3821 8.23594C8.69217 8.57865 9.06491 8.75 9.50033 8.75Z" fill="white"/>
</svg>
