<svg width="15" height="16" viewBox="0 0 15 16" fill="none" xmlns="http://www.w3.org/2000/svg">
<path d="M12.25 14L8.3125 9.8C8 10.0667 7.64062 10.2778 7.23437 10.4333C6.82812 10.5889 6.39583 10.6667 5.9375 10.6667C4.80208 10.6667 3.84115 10.2472 3.05469 9.40833C2.26823 8.56944 1.875 7.54444 1.875 6.33333C1.875 5.12222 2.26823 4.09722 3.05469 3.25833C3.84115 2.41944 4.80208 2 5.9375 2C7.07292 2 8.03385 2.41944 8.82031 3.25833C9.60677 4.09722 10 5.12222 10 6.33333C10 6.82222 9.92708 7.28333 9.78125 7.71667C9.63542 8.15 9.4375 8.53333 9.1875 8.86667L13.125 13.0667L12.25 14ZM5.9375 9.33333C6.71875 9.33333 7.38281 9.04167 7.92969 8.45833C8.47656 7.875 8.75 7.16667 8.75 6.33333C8.75 5.5 8.47656 4.79167 7.92969 4.20833C7.38281 3.625 6.71875 3.33333 5.9375 3.33333C5.15625 3.33333 4.49219 3.625 3.94531 4.20833C3.39844 4.79167 3.125 5.5 3.125 6.33333C3.125 7.16667 3.39844 7.875 3.94531 8.45833C4.49219 9.04167 5.15625 9.33333 5.9375 9.33333Z" fill="#FEF7FF"/>
</svg>
