<svg width="32" height="30" viewBox="0 0 32 30" fill="none" xmlns="http://www.w3.org/2000/svg">
<g clip-path="url(#clip0_1_1190)">
<path d="M30.6666 3.74987C29.3898 4.59422 27.9761 5.24001 26.48 5.66237C25.677 4.79676 24.6098 4.18324 23.4227 3.90478C22.2356 3.62632 20.986 3.69637 19.8428 4.10544C18.6995 4.51451 17.7179 5.24288 17.0306 6.19202C16.3433 7.14116 15.9836 8.26529 16 9.41237V10.6624C13.6568 10.7193 11.335 10.2321 9.24132 9.24418C7.14764 8.25622 5.34707 6.79817 3.99998 4.99987C3.99998 4.99987 -1.33335 16.2499 10.6666 21.2499C7.92068 22.9973 4.64952 23.8735 1.33331 23.7499C13.3333 29.9999 28 23.7499 28 9.37487C27.9988 9.02669 27.963 8.67937 27.8933 8.33737C29.2541 7.07924 30.2144 5.49077 30.6666 3.74987Z" stroke="#B3B3B3" stroke-width="4" stroke-linecap="round" stroke-linejoin="round"/>
</g>
<defs>
<clipPath id="clip0_1_1190">
<rect width="32" height="30" fill="white"/>
</clipPath>
</defs>
</svg>
