<svg width="32" height="30" viewBox="0 0 32 30" fill="none" xmlns="http://www.w3.org/2000/svg">
<g clip-path="url(#clip0_7_284)">
<path d="M30.6667 3.74987C29.3899 4.59422 27.9762 5.24001 26.48 5.66237C25.677 4.79676 24.6098 4.18324 23.4227 3.90478C22.2357 3.62632 20.986 3.69637 19.8428 4.10544C18.6996 4.51451 17.7179 5.24288 17.0307 6.19202C16.3434 7.14116 15.9836 8.26529 16 9.41237V10.6624C13.6569 10.7193 11.335 10.2321 9.24135 9.24418C7.14767 8.25622 5.3471 6.79817 4.00001 4.99987C4.00001 4.99987 -1.33332 16.2499 10.6667 21.2499C7.92071 22.9973 4.64955 23.8735 1.33334 23.7499C13.3333 29.9999 28 23.7499 28 9.37487C27.9988 9.02669 27.9631 8.67937 27.8933 8.33737C29.2541 7.07924 30.2144 5.49077 30.6667 3.74987Z" stroke="#B3B3B3" stroke-width="4" stroke-linecap="round" stroke-linejoin="round"/>
</g>
<defs>
<clipPath id="clip0_7_284">
<rect width="32" height="30" fill="white"/>
</clipPath>
</defs>
</svg>
