<svg width="45" height="43" viewBox="0 0 45 43" fill="none" xmlns="http://www.w3.org/2000/svg">
<g clip-path="url(#clip0_18_8864)">
<path d="M30 28.6671L22.5 21.5005M22.5 21.5005L15 28.6671M22.5 21.5005V37.6255M38.2312 32.9492C40.06 31.9966 41.5047 30.4891 42.3373 28.6647C43.1698 26.8403 43.3429 24.8029 42.8291 22.8741C42.3154 20.9453 41.144 19.2349 39.5 18.0129C37.856 16.7909 35.8329 16.1268 33.75 16.1255H31.3875C30.82 14.0279 29.7622 12.0805 28.2936 10.4298C26.8251 8.77902 24.9841 7.46788 22.9089 6.5949C20.8338 5.72192 18.5785 5.30983 16.3127 5.3896C14.0469 5.46937 11.8295 6.03893 9.82719 7.05546C7.8249 8.07199 6.08982 9.50904 4.7524 11.2586C3.41498 13.0081 2.51003 15.0246 2.10557 17.1564C1.70112 19.2882 1.80768 21.4799 2.41726 23.5667C3.02684 25.6535 4.12357 27.5812 5.62499 29.2046" stroke="#1E1E1E" stroke-width="4" stroke-linecap="round" stroke-linejoin="round"/>
</g>
<defs>
<clipPath id="clip0_18_8864">
<rect width="45" height="43" fill="white"/>
</clipPath>
</defs>
</svg>
