<svg width="32" height="36" viewBox="0 0 32 36" fill="none" xmlns="http://www.w3.org/2000/svg">
<rect width="32" height="36" rx="16" fill="#778DA9"/>
<path d="M26.6663 31.5V28.5C26.6663 26.9087 26.1044 25.3826 25.1042 24.2574C24.104 23.1321 22.7475 22.5 21.333 22.5H10.6663C9.25185 22.5 7.8953 23.1321 6.8951 24.2574C5.89491 25.3826 5.33301 26.9087 5.33301 28.5V31.5M21.333 10.5C21.333 13.8137 18.9452 16.5 15.9997 16.5C13.0542 16.5 10.6663 13.8137 10.6663 10.5C10.6663 7.18629 13.0542 4.5 15.9997 4.5C18.9452 4.5 21.333 7.18629 21.333 10.5Z" stroke="#1E1E1E" stroke-width="4" stroke-linecap="round" stroke-linejoin="round"/>
</svg>
